HIERARCHY
ROOT Hips
{
	OFFSET 0.000000 100.481300 0.000000
	CHANNELS 6 Xposition Yposition Zposition Xrotation Yrotation Zrotation
	JOINT Spine
	{
		OFFSET -0.279200 12.230698 -2.892100
		CHANNELS 3 Xrotation Yrotation Zrotation
		JOINT Spine1
		{
			OFFSET -0.325700 14.269203 -3.374200
			CHANNELS 3 Xrotation Yrotation Zrotation
			JOINT Spine2
			{
				OFFSET -0.372300 16.307602 -0.352600
				CHANNELS 3 Xrotation Yrotation Zrotation
				JOINT Neck
				{
					OFFSET -0.418800 17.814194 8.416900
					CHANNELS 3 Xrotation Yrotation Zrotation
					JOINT Head
					{
						OFFSET 0.000000 7.031097 3.806800
						CHANNELS 3 Xrotation Yrotation Zrotation
						JOINT HeadTop_End
						{
							OFFSET 0.000000 24.646606 12.978600
							CHANNELS 3 Xrotation Yrotation Zrotation
							End Site
							{
								OFFSET 0.000000 27.854965 0.000000
							}
						}
					}
				}
				JOINT LeftShoulder
				{
					OFFSET 16.952999 14.495407 -7.737500
					CHANNELS 3 Xrotation Yrotation Zrotation
					JOINT LeftArm
					{
						OFFSET 9.308998 -2.777710 0.208600
						CHANNELS 3 Xrotation Yrotation Zrotation
						JOINT LeftForeArm
						{
							OFFSET 29.972298 0.000000 0.000000
							CHANNELS 3 Xrotation Yrotation Zrotation
							JOINT LeftHand
							{
								OFFSET 26.026505 0.000000 0.000000
								CHANNELS 3 Xrotation Yrotation Zrotation
								JOINT LeftHandThumb1
								{
									OFFSET 12.240501 -7.147949 9.207150
									CHANNELS 3 Xrotation Yrotation Zrotation
									JOINT LeftHandThumb2
									{
										OFFSET 4.138618 -2.389435 2.389433
										CHANNELS 3 Xrotation Yrotation Zrotation
										JOINT LeftHandThumb3
										{
											OFFSET 2.726913 -1.574387 1.574386
											CHANNELS 3 Xrotation Yrotation Zrotation
											JOINT LeftHandThumb4
											{
												OFFSET 3.941010 -2.275345 2.275342
												CHANNELS 3 Xrotation Yrotation Zrotation
												End Site
												{
													OFFSET -0.005798 5.087799 0.009903
												}
											}
										}
									}
								}
								JOINT LeftHandIndex1
								{
									OFFSET 24.424698 -1.985611 5.953459
									CHANNELS 3 Xrotation Yrotation Zrotation
									JOINT LeftHandIndex2
									{
										OFFSET 6.426697 0.000000 0.000000
										CHANNELS 3 Xrotation Yrotation Zrotation
										JOINT LeftHandIndex3
										{
											OFFSET 5.337898 0.000000 0.000000
											CHANNELS 3 Xrotation Yrotation Zrotation
											JOINT LeftHandIndex4
											{
												OFFSET 4.409401 0.000000 0.000000
												CHANNELS 3 Xrotation Yrotation Zrotation
												End Site
												{
													OFFSET 0.000000 4.409363 0.014373
												}
											}
										}
									}
								}
								JOINT LeftHandMiddle1
								{
									OFFSET 23.810104 0.000000 0.000000
									CHANNELS 3 Xrotation Yrotation Zrotation
									JOINT LeftHandMiddle2
									{
										OFFSET 7.176498 0.000000 0.000000
										CHANNELS 3 Xrotation Yrotation Zrotation
										JOINT LeftHandMiddle3
										{
											OFFSET 6.774902 0.000000 0.000000
											CHANNELS 3 Xrotation Yrotation Zrotation
											JOINT LeftHandMiddle4
											{
												OFFSET 5.403328 0.000000 0.000000
												CHANNELS 3 Xrotation Yrotation Zrotation
												End Site
												{
													OFFSET -0.027702 5.403244 0.017414
												}
											}
										}
									}
								}
								JOINT LeftHandRing1
								{
									OFFSET 22.908401 -0.839279 -6.020567
									CHANNELS 3 Xrotation Yrotation Zrotation
									JOINT LeftHandRing2
									{
										OFFSET 6.337502 0.000000 0.000000
										CHANNELS 3 Xrotation Yrotation Zrotation
										JOINT LeftHandRing3
										{
											OFFSET 5.779297 0.000000 0.000000
											CHANNELS 3 Xrotation Yrotation Zrotation
											JOINT LeftHandRing4
											{
												OFFSET 4.965698 0.000000 0.000000
												CHANNELS 3 Xrotation Yrotation Zrotation
												End Site
												{
													OFFSET 0.000000 4.965668 0.016186
												}
											}
										}
									}
								}
								JOINT LeftHandPinky1
								{
									OFFSET 20.037003 -1.530319 -10.950146
									CHANNELS 3 Xrotation Yrotation Zrotation
									JOINT LeftHandPinky2
									{
										OFFSET 5.254700 0.000000 0.000000
										CHANNELS 3 Xrotation Yrotation Zrotation
										JOINT LeftHandPinky3
										{
											OFFSET 4.810204 0.000000 0.000000
											CHANNELS 3 Xrotation Yrotation Zrotation
											JOINT LeftHandPinky4
											{
												OFFSET 3.647202 0.000000 0.000000
												CHANNELS 3 Xrotation Yrotation Zrotation
												End Site
												{
													OFFSET 0.000000 3.647186 0.011889
												}
											}
										}
									}
								}
							}
						}
					}
				}
				JOINT RightShoulder
				{
					OFFSET -15.141001 14.495407 -7.737500
					CHANNELS 3 Xrotation Yrotation Zrotation
					JOINT RightArm
					{
						OFFSET -9.308998 -2.777710 0.208500
						CHANNELS 3 Xrotation Yrotation Zrotation
						JOINT RightForeArm
						{
							OFFSET -29.972300 0.000000 0.000000
							CHANNELS 3 Xrotation Yrotation Zrotation
							JOINT RightHand
							{
								OFFSET -26.026505 0.000000 0.000000
								CHANNELS 3 Xrotation Yrotation Zrotation
								JOINT RightHandThumb1
								{
									OFFSET -12.240601 -7.148026 9.207092
									CHANNELS 3 Xrotation Yrotation Zrotation
									JOINT RightHandThumb2
									{
										OFFSET -4.138618 -2.389435 2.389433
										CHANNELS 3 Xrotation Yrotation Zrotation
										JOINT RightHandThumb3
										{
											OFFSET -2.726974 -1.574417 1.574421
											CHANNELS 3 Xrotation Yrotation Zrotation
											JOINT RightHandThumb4
											{
												OFFSET -3.941010 -2.275345 2.275343
												CHANNELS 3 Xrotation Yrotation Zrotation
												End Site
												{
													OFFSET 0.005814 5.087799 0.009927
												}
											}
										}
									}
								}
								JOINT RightHandIndex1
								{
									OFFSET -24.424698 -1.985657 5.953444
									CHANNELS 3 Xrotation Yrotation Zrotation
									JOINT RightHandIndex2
									{
										OFFSET -6.426697 0.000000 0.000000
										CHANNELS 3 Xrotation Yrotation Zrotation
										JOINT RightHandIndex3
										{
											OFFSET -5.337898 0.000000 0.000000
											CHANNELS 3 Xrotation Yrotation Zrotation
											JOINT RightHandIndex4
											{
												OFFSET -4.409401 0.000000 0.000000
												CHANNELS 3 Xrotation Yrotation Zrotation
												End Site
												{
													OFFSET 0.000000 4.409363 0.014408
												}
											}
										}
									}
								}
								JOINT RightHandMiddle1
								{
									OFFSET -23.810097 0.000000 0.000000
									CHANNELS 3 Xrotation Yrotation Zrotation
									JOINT RightHandMiddle2
									{
										OFFSET -7.176498 0.000000 0.000000
										CHANNELS 3 Xrotation Yrotation Zrotation
										JOINT RightHandMiddle3
										{
											OFFSET -6.774902 0.000000 0.000000
											CHANNELS 3 Xrotation Yrotation Zrotation
											JOINT RightHandMiddle4
											{
												OFFSET -5.403328 0.000000 0.000000
												CHANNELS 3 Xrotation Yrotation Zrotation
												End Site
												{
													OFFSET 0.027702 5.403244 0.017457
												}
											}
										}
									}
								}
								JOINT RightHandRing1
								{
									OFFSET -22.908302 -0.839325 -6.020576
									CHANNELS 3 Xrotation Yrotation Zrotation
									JOINT RightHandRing2
									{
										OFFSET -6.337502 0.000000 0.000000
										CHANNELS 3 Xrotation Yrotation Zrotation
										JOINT RightHandRing3
										{
											OFFSET -5.779297 0.000000 0.000000
											CHANNELS 3 Xrotation Yrotation Zrotation
											JOINT RightHandRing4
											{
												OFFSET -4.965698 0.000000 0.000000
												CHANNELS 3 Xrotation Yrotation Zrotation
												End Site
												{
													OFFSET 0.000000 4.965668 0.016226
												}
											}
										}
									}
								}
								JOINT RightHandPinky1
								{
									OFFSET -20.037003 -1.530334 -10.950259
									CHANNELS 3 Xrotation Yrotation Zrotation
									JOINT RightHandPinky2
									{
										OFFSET -5.254700 0.000000 0.000000
										CHANNELS 3 Xrotation Yrotation Zrotation
										JOINT RightHandPinky3
										{
											OFFSET -4.810204 0.000000 0.000000
											CHANNELS 3 Xrotation Yrotation Zrotation
											JOINT RightHandPinky4
											{
												OFFSET -3.647202 0.000000 0.000000
												CHANNELS 3 Xrotation Yrotation Zrotation
												End Site
												{
													OFFSET 0.000000 3.647186 0.011917
												}
											}
										}
									}
								}
							}
						}
					}
				}
			}
		}
	}
	JOINT LeftUpLeg
	{
		OFFSET 15.427100 -6.655098 0.678600
		CHANNELS 3 Xrotation Yrotation Zrotation
		JOINT LeftLeg
		{
			OFFSET 4.081073 -39.591068 13.024000
			CHANNELS 3 Xrotation Yrotation Zrotation
			JOINT LeftFoot
			{
				OFFSET -4.081074 -37.707932 -15.979700
				CHANNELS 3 Xrotation Yrotation Zrotation
				JOINT LeftToeBase
				{
					OFFSET 5.346399 -15.068900 20.645000
					CHANNELS 3 Xrotation Yrotation Zrotation
					JOINT LeftToe_End
					{
						OFFSET 2.754700 0.931300 11.300900
						CHANNELS 3 Xrotation Yrotation Zrotation
						End Site
						{
							OFFSET 0.000000 11.669021 0.000000
						}
					}
				}
			}
		}
	}
	JOINT RightUpLeg
	{
		OFFSET -15.569500 -6.655098 0.678600
		CHANNELS 3 Xrotation Yrotation Zrotation
		JOINT RightLeg
		{
			OFFSET -4.081825 -39.591045 13.023800
			CHANNELS 3 Xrotation Yrotation Zrotation
			JOINT RightFoot
			{
				OFFSET 4.081824 -37.707954 -15.979600
				CHANNELS 3 Xrotation Yrotation Zrotation
				JOINT RightToeBase
				{
					OFFSET -5.346400 -15.068900 20.645000
					CHANNELS 3 Xrotation Yrotation Zrotation
					JOINT RightToe_End
					{
						OFFSET -2.754700 0.931300 11.300900
						CHANNELS 3 Xrotation Yrotation Zrotation
						End Site
						{
							OFFSET 0.000000 11.669021 0.000000
						}
					}
				}
			}
		}
	}
}
MOTION
Frames: 4
Frame Time: 0.033333
-6.812216 17.460548 -79.318817 -76.418356 -29.501974 12.364811 39.784049 3.146949 13.235678 6.194068 0.190273 0.237649 6.197742 0.025727 0.251935 -0.601948 1.400125 -2.026112 38.916755 3.103157 1.083911 -0.000001 -0.000000 -0.000003 -0.081339 3.899455 0.705549 -22.545396 -47.819179 -57.940372 -0.000004 -77.000267 -0.000007 0.404625 12.465771 -37.375844 1.247501 0.731567 3.007324 19.473192 -1.474909 7.636921 -4.536180 -9.613112 1.492979 0.000000 -0.000001 -0.000002 0.356790 -6.783674 1.400568 0.433170 2.212643 -22.150138 0.457627 2.271811 -22.775761 -0.000004 -0.000001 -0.000002 -3.374171 -9.396733 -16.144967 1.482108 3.895716 -41.645579 1.660186 4.086712 -44.203632 -0.000002 0.000000 -0.000000 3.219391 9.702666 -27.962048 0.804051 2.964003 -30.348846 0.917282 3.149165 -32.472232 0.000002 0.000001 -0.000001 5.182342 9.686335 -46.596264 0.923263 3.158556 -32.581187 0.952595 3.203908 -33.109468 -0.000001 -0.000003 -0.000000 1.875052 4.302888 5.924365 -27.859973 32.594110 22.300315 0.001036 93.341638 -0.001014 -15.838942 -11.363848 -16.883528 -47.162859 -49.592791 14.014415 20.113679 -26.261307 -3.306323 17.122243 -27.762366 5.359196 -0.000002 0.000003 0.000001 5.223493 -20.390497 16.065034 1.483098 -3.409760 47.004119 0.614602 -2.314258 29.742257 -0.000001 -0.000000 0.000001 6.694024 -11.856654 39.955852 5.772812 -4.521855 103.874808 5.230761 -4.621782 97.082417 -0.000000 -0.000005 0.000004 0.362385 -4.920572 54.855104 5.969898 -4.468720 106.389110 6.616495 -4.225780 114.903671 0.000001 -0.000001 -0.000000 0.193792 -5.001506 58.927505 2.005852 -3.830182 55.269136 1.117506 -3.028474 40.500491 0.000003 0.000002 0.000001 -25.099333 8.233264 11.968670 45.358088 3.899030 -1.622244 -8.508758 3.650727 -18.370671 14.417559 -0.000005 0.000002 -0.000002 0.000000 0.000000 -50.247642 15.671837 -8.967532 51.470670 -14.299700 0.411935 49.577171 -15.545082 18.310081 -9.430213 -0.000011 0.000031 0.000000 0.000000 0.000002 
-6.465290 17.209251 -81.007469 -81.290432 -32.667572 11.209616 36.625277 6.302068 16.249056 6.216950 0.470857 0.289812 6.228102 0.297113 0.306596 -3.302189 1.821110 -2.441999 48.583737 3.813580 -0.758155 -0.000000 0.000000 0.000000 -0.241681 4.956941 1.657755 -15.910886 -46.110167 -48.759423 -0.000010 -72.845757 -0.000015 6.050940 13.495496 -41.630611 -0.427506 0.406507 3.996187 19.473192 -1.474909 7.636921 -4.536182 -9.613118 1.492976 -0.000002 -0.000000 -0.000000 -0.075809 -4.756319 -1.555546 0.475807 2.314607 -23.229967 0.501458 2.373390 -23.856944 0.000000 -0.000001 0.000001 -3.424947 -9.479851 -16.264157 1.558348 3.979583 -42.755789 1.675077 4.101970 -44.412383 -0.000001 -0.000002 0.000002 4.071069 10.422970 -31.808949 0.866244 3.067615 -31.531036 0.977683 3.241994 -33.555746 0.000000 -0.000001 -0.000001 6.163312 10.298482 -48.921575 0.993395 3.265520 -33.832386 1.042497 3.337447 -34.684715 0.000001 0.000001 -0.000000 1.790405 4.735719 6.081949 -28.672731 29.686195 23.461748 0.001767 92.339288 -0.001772 -13.465580 -12.944430 -14.192640 -45.089873 -50.478462 14.552237 19.691843 -26.667849 -3.411292 17.397084 -27.654765 5.658900 -0.000002 -0.000000 -0.000001 5.381232 -19.611570 17.376194 1.497747 -3.423349 47.250091 0.614696 -2.314409 29.744357 -0.000001 -0.000000 0.000000 6.210923 -11.418572 39.320719 5.805634 -4.513646 104.291695 5.230176 -4.621870 97.075068 0.000001 -0.000001 -0.000004 0.537353 -4.995553 53.583476 5.990005 -4.462780 106.647393 6.616826 -4.225623 114.908152 0.000002 -0.000000 0.000000 0.425876 -5.094463 57.862883 2.107917 -3.898794 56.783348 1.198655 -3.120859 42.013501 0.000001 -0.000000 0.000001 -21.791341 8.900823 14.447600 47.890903 5.625819 -1.907088 -6.708022 4.297847 -19.075064 13.731970 -0.000001 0.000001 -0.000000 0.000000 0.000000 -42.794919 13.725589 -13.112454 46.336461 -12.701054 -2.425164 38.989104 -24.544341 26.692695 -13.683978 -0.000018 -0.000002 -0.000001 0.000001 -0.000000 
-6.006573 17.045219 -82.602882 -84.097087 -35.376654 11.609823 32.405327 7.668421 18.106806 6.173144 0.629106 0.376120 6.187762 0.464636 0.395521 -5.626832 2.143866 -1.180694 53.563447 7.483163 -2.386370 -0.000000 0.000000 0.000003 -0.441067 5.936449 4.012857 -11.321050 -41.243322 -43.431800 0.000009 -71.638801 0.000021 11.898899 16.650924 -48.464167 -3.074827 0.041791 5.669446 19.473194 -1.474908 7.636922 -4.536178 -9.613115 1.492978 -0.000001 -0.000000 0.000000 -0.412036 -0.713473 -8.195591 0.574719 2.532447 -25.568649 0.603061 2.590800 -26.202861 0.000001 0.000001 0.000001 -4.840931 -7.142589 -25.290270 1.719114 4.146302 -45.024522 1.733394 4.160472 -45.221754 -0.000001 -0.000001 0.000001 4.849330 10.187447 -39.783478 1.025168 3.312348 -34.386359 1.143896 3.479198 -36.390777 -0.000000 0.000001 0.000001 6.371927 9.922224 -53.758688 1.150947 3.488703 -36.506511 1.209506 3.566332 -37.458226 -0.000004 0.000000 -0.000002 1.803232 5.503776 6.195516 -30.788406 28.197172 24.005694 0.198789 90.331513 -0.199415 -10.211917 -15.014685 -8.959395 -39.445172 -49.990889 19.762254 19.164903 -27.188157 -3.523224 17.584759 -27.594118 5.843659 -0.000002 0.000001 0.000001 5.368331 -17.019807 20.624707 1.485796 -3.412247 47.049311 0.614950 -2.314856 29.750764 -0.000002 0.000000 -0.000000 5.818715 -11.430956 37.050436 5.832814 -4.506651 104.637166 5.230170 -4.621866 97.075074 0.000001 -0.000002 0.000001 1.026932 -5.288333 50.596033 5.979544 -4.465891 106.512866 6.617802 -4.225173 114.921416 0.000001 -0.000000 0.000000 1.100635 -5.470582 56.095073 2.156077 -3.929835 57.488828 1.237922 -3.163829 42.729769 0.000001 0.000001 -0.000002 -20.339492 10.630223 16.735698 51.246325 6.532760 -2.810378 -4.693595 7.213560 -17.908531 13.129996 -0.000001 -0.000008 0.000001 0.000000 0.000000 -39.930543 12.004630 -16.188447 39.310484 -11.145125 -6.119184 31.960713 -27.380364 22.191672 -20.950871 -0.000017 0.000009 -0.000000 0.000001 -0.000001 
-5.205626 18.333763 -84.444466 -85.490780 -37.693540 12.413336 29.091271 9.801679 18.266060 5.466295 0.850770 1.096267 5.478186 0.752939 1.111816 -8.479509 2.066156 1.255169 48.034948 12.236558 -0.855632 0.000001 -0.000001 0.000001 -0.059031 3.117019 6.144536 -7.677255 -31.971750 -37.462515 0.000004 -76.945885 0.000002 2.739930 13.350996 -40.641432 -6.504110 -0.626202 7.883159 19.473194 -1.474912 7.636921 -4.536177 -9.613115 1.492977 -0.000002 -0.000001 0.000001 -0.420365 1.196559 -14.423341 0.720452 2.816531 -28.690978 0.752130 2.873605 -29.329300 0.000002 -0.000001 -0.000002 -6.519879 -4.536311 -37.384108 1.940978 4.356104 -48.016715 1.818582 4.243079 -46.384170 -0.000002 -0.000000 0.000001 4.668899 9.189345 -46.858783 1.288629 3.667097 -38.712730 1.420276 3.825219 -40.727602 -0.000000 -0.000001 -0.000001 5.621032 9.051287 -58.075350 1.350495 3.742825 -39.669974 1.414492 3.818489 -40.640373 0.000002 0.000001 -0.000002 2.143905 7.056285 6.299688 -37.450231 23.359800 25.549146 0.003243 87.520883 -0.003202 -7.066469 -18.426037 -2.568157 -37.482640 -49.067714 22.426957 18.566097 -27.772049 -3.654744 17.673903 -27.573919 5.915790 -0.000002 0.000001 0.000001 4.920426 -14.382500 23.334139 1.470075 -3.397584 46.784689 0.615215 -2.315290 29.756914 0.000003 0.000000 -0.000000 5.591125 -11.256248 36.488971 5.833020 -4.506610 104.639775 5.229930 -4.621893 97.072049 0.000001 0.000001 0.000002 1.475690 -5.641512 48.749662 5.944780 -4.476010 106.066971 6.618763 -4.224734 114.934366 0.000000 0.000001 -0.000001 1.641500 -5.815464 54.610091 2.106982 -3.898179 56.769647 1.199526 -3.121827 42.029531 -0.000002 -0.000000 0.000001 -19.621556 13.098609 18.934652 54.401572 7.197594 -3.470985 -3.256997 9.750579 -15.201768 13.607620 -0.000000 0.000001 0.000001 -0.000001 -0.000001 -37.717343 9.989516 -20.207265 31.792850 -9.565280 -8.894050 26.828278 -29.613849 19.646303 -23.284912 -0.000013 0.000016 -0.000001 0.000000 0.000000 
